<mxfile host="app.diagrams.net" modified="2023-10-10T05:00:17.865Z" agent="Mozilla/5.0 (Macintosh; Intel Mac OS X 10_15_7) AppleWebKit/605.1.15 (KHTML, like Gecko) Version/15.5 Safari/605.1.15" etag="80y6PIAZS8Dgrfgbfbet" version="22.0.4" type="google">
  <diagram name="Page-1" id="SxQ-1F-TqdlbB6wnMvP3">
    <mxGraphModel grid="1" page="1" gridSize="10" guides="1" tooltips="1" connect="1" arrows="1" fold="1" pageScale="1" pageWidth="850" pageHeight="1100" math="1" shadow="0">
      <root>
        <mxCell id="0" />
        <mxCell id="1" parent="0" />
        <mxCell id="qGYoRoHl6GuYVIY8IuJY-1" value="" style="ellipse;whiteSpace=wrap;html=1;strokeColor=#000000;" vertex="1" parent="1">
          <mxGeometry x="810" y="166" width="780" height="780" as="geometry" />
        </mxCell>
        <mxCell id="qGYoRoHl6GuYVIY8IuJY-2" value="&lt;font style=&quot;font-size: 14px;&quot;&gt;$$F_{collect_{heat}}$$&lt;/font&gt;" style="ellipse;whiteSpace=wrap;html=1;aspect=fixed;fillColor=#A9C4EB;" vertex="1" parent="1">
          <mxGeometry x="950" y="460" width="80" height="80" as="geometry" />
        </mxCell>
        <mxCell id="qGYoRoHl6GuYVIY8IuJY-3" value="&lt;font style=&quot;font-size: 14px;&quot;&gt;$$V_{damage}$$&lt;/font&gt;" style="ellipse;whiteSpace=wrap;html=1;aspect=fixed;fillColor=#FFFFFF;strokeColor=#080505;strokeWidth=1;" vertex="1" parent="1">
          <mxGeometry x="1080" y="706" width="80" height="80" as="geometry" />
        </mxCell>
        <mxCell id="qGYoRoHl6GuYVIY8IuJY-5" value="&lt;font style=&quot;font-size: 10px;&quot;&gt;Meteorite Impact&lt;/font&gt;" style="ellipse;whiteSpace=wrap;html=1;aspect=fixed;fillColor=#FFFFFF;strokeColor=#F19C99;strokeWidth=2;dashed=1;dashPattern=8 8;" vertex="1" parent="1">
          <mxGeometry x="1010" y="751" width="50" height="50" as="geometry" />
        </mxCell>
        <mxCell id="qGYoRoHl6GuYVIY8IuJY-6" value="&lt;font style=&quot;font-size: 14px;&quot;&gt;Aging&lt;/font&gt;" style="ellipse;whiteSpace=wrap;html=1;aspect=fixed;fillColor=#FFFFFF;strokeColor=#F19C99;strokeWidth=2;dashed=1;dashPattern=8 8;" vertex="1" parent="1">
          <mxGeometry x="1080" y="801" width="50" height="50" as="geometry" />
        </mxCell>
        <mxCell id="qGYoRoHl6GuYVIY8IuJY-7" value="&lt;font style=&quot;font-size: 10px;&quot;&gt;Human Action&amp;nbsp;&lt;/font&gt;" style="ellipse;whiteSpace=wrap;html=1;aspect=fixed;fillColor=#FFFFFF;strokeColor=#F19C99;strokeWidth=2;dashed=1;dashPattern=8 8;" vertex="1" parent="1">
          <mxGeometry x="1160" y="871" width="50" height="50" as="geometry" />
        </mxCell>
        <mxCell id="qGYoRoHl6GuYVIY8IuJY-9" value="" style="shape=flexArrow;endArrow=classic;html=1;rounded=0;fillColor=#000000;width=0.3225806451612903;endSize=1.064804469273743;endWidth=2.980717246350694;" edge="1" parent="1" source="qGYoRoHl6GuYVIY8IuJY-23" target="qGYoRoHl6GuYVIY8IuJY-24">
          <mxGeometry width="50" height="50" relative="1" as="geometry">
            <mxPoint x="1230" y="635.5" as="sourcePoint" />
            <mxPoint x="1270" y="635.5" as="targetPoint" />
          </mxGeometry>
        </mxCell>
        <mxCell id="qGYoRoHl6GuYVIY8IuJY-10" value="" style="shape=flexArrow;endArrow=classic;html=1;rounded=0;fillColor=#000000;exitX=0.041;exitY=0.408;exitDx=0;exitDy=0;width=0.3225806451612903;endSize=1.064804469273743;endWidth=2.980717246350694;entryX=0.99;entryY=0.667;entryDx=0;entryDy=0;exitPerimeter=0;entryPerimeter=0;" edge="1" parent="1" source="qGYoRoHl6GuYVIY8IuJY-22" target="qGYoRoHl6GuYVIY8IuJY-2">
          <mxGeometry width="50" height="50" relative="1" as="geometry">
            <mxPoint x="1395" y="645.4100000000001" as="sourcePoint" />
            <mxPoint x="1280" y="645.4100000000001" as="targetPoint" />
            <Array as="points" />
          </mxGeometry>
        </mxCell>
        <mxCell id="qGYoRoHl6GuYVIY8IuJY-11" value="" style="shape=flexArrow;endArrow=classic;html=1;rounded=0;width=0.3225806451612903;endSize=1.064804469273743;endWidth=2.980717246350694;strokeColor=#F19C99;" edge="1" parent="1" source="qGYoRoHl6GuYVIY8IuJY-6" target="qGYoRoHl6GuYVIY8IuJY-3">
          <mxGeometry width="50" height="50" relative="1" as="geometry">
            <mxPoint x="1102" y="381" as="sourcePoint" />
            <mxPoint x="1050" y="386" as="targetPoint" />
          </mxGeometry>
        </mxCell>
        <mxCell id="qGYoRoHl6GuYVIY8IuJY-12" value="&lt;font style=&quot;font-size: 10px;&quot;&gt;Incorrect maintenance procedure&lt;/font&gt;" style="ellipse;whiteSpace=wrap;html=1;aspect=fixed;fillColor=#FFFFFF;strokeColor=#F19C99;strokeWidth=2;dashed=1;dashPattern=8 8;" vertex="1" parent="1">
          <mxGeometry x="1170" y="771" width="50" height="50" as="geometry" />
        </mxCell>
        <mxCell id="qGYoRoHl6GuYVIY8IuJY-13" value="" style="shape=flexArrow;endArrow=classic;html=1;rounded=0;width=0.3225806451612903;endSize=1.064804469273743;endWidth=2.980717246350694;strokeColor=#F19C99;" edge="1" parent="1">
          <mxGeometry width="50" height="50" relative="1" as="geometry">
            <mxPoint x="857" y="254" as="sourcePoint" />
            <mxPoint x="1192.5728308639955" y="356.5803778462189" as="targetPoint" />
          </mxGeometry>
        </mxCell>
        <mxCell id="qGYoRoHl6GuYVIY8IuJY-14" value="" style="shape=flexArrow;endArrow=classic;html=1;rounded=0;width=0.3225806451612903;endSize=1.064804469273743;endWidth=2.980717246350694;strokeColor=#F19C99;" edge="1" parent="1" source="qGYoRoHl6GuYVIY8IuJY-12" target="qGYoRoHl6GuYVIY8IuJY-3">
          <mxGeometry width="50" height="50" relative="1" as="geometry">
            <mxPoint x="925" y="1021" as="sourcePoint" />
            <mxPoint x="768" y="954" as="targetPoint" />
          </mxGeometry>
        </mxCell>
        <mxCell id="qGYoRoHl6GuYVIY8IuJY-15" value="" style="shape=flexArrow;endArrow=classic;html=1;rounded=0;width=0.3225806451612903;endSize=1.064804469273743;endWidth=2.980717246350694;strokeColor=#F19C99;" edge="1" parent="1" source="qGYoRoHl6GuYVIY8IuJY-7" target="qGYoRoHl6GuYVIY8IuJY-20">
          <mxGeometry width="50" height="50" relative="1" as="geometry">
            <mxPoint x="1070" y="1061" as="sourcePoint" />
            <mxPoint x="935" y="1031" as="targetPoint" />
          </mxGeometry>
        </mxCell>
        <mxCell id="qGYoRoHl6GuYVIY8IuJY-16" value="" style="shape=flexArrow;endArrow=classic;html=1;rounded=0;width=0.3225806451612903;endSize=1.064804469273743;endWidth=2.980717246350694;strokeColor=#F19C99;entryX=1;entryY=1;entryDx=0;entryDy=0;" edge="1" parent="1" source="qGYoRoHl6GuYVIY8IuJY-20" target="qGYoRoHl6GuYVIY8IuJY-12">
          <mxGeometry width="50" height="50" relative="1" as="geometry">
            <mxPoint x="1060" y="1126" as="sourcePoint" />
            <mxPoint x="1080" y="1141" as="targetPoint" />
          </mxGeometry>
        </mxCell>
        <mxCell id="qGYoRoHl6GuYVIY8IuJY-17" value="&lt;div style=&quot;text-align: center;&quot;&gt;&lt;font style=&quot;font-size: 48px;&quot;&gt;Heat Exchanger&lt;/font&gt;&lt;/div&gt;" style="text;whiteSpace=wrap;html=1;fillColor=none;" vertex="1" parent="1">
          <mxGeometry x="1030" y="190" width="150" height="40" as="geometry" />
        </mxCell>
        <mxCell id="qGYoRoHl6GuYVIY8IuJY-18" value="" style="shape=flexArrow;endArrow=classic;html=1;rounded=0;width=0.3225806451612903;endSize=1.064804469273743;endWidth=2.980717246350694;strokeColor=#F19C99;" edge="1" parent="1" source="qGYoRoHl6GuYVIY8IuJY-5" target="qGYoRoHl6GuYVIY8IuJY-3">
          <mxGeometry width="50" height="50" relative="1" as="geometry">
            <mxPoint x="703" y="1007" as="sourcePoint" />
            <mxPoint x="717" y="964" as="targetPoint" />
          </mxGeometry>
        </mxCell>
        <mxCell id="qGYoRoHl6GuYVIY8IuJY-19" value="&lt;font style=&quot;font-size: 10px;&quot;&gt;Robot Action&amp;nbsp;&lt;/font&gt;" style="ellipse;whiteSpace=wrap;html=1;aspect=fixed;fillColor=#FFFFFF;strokeColor=#F19C99;strokeWidth=2;dashed=1;dashPattern=8 8;" vertex="1" parent="1">
          <mxGeometry x="1250" y="871" width="50" height="50" as="geometry" />
        </mxCell>
        <mxCell id="qGYoRoHl6GuYVIY8IuJY-20" value="" style="ellipse;whiteSpace=wrap;html=1;aspect=fixed;fillColor=#000000;strokeColor=#000000;" vertex="1" parent="1">
          <mxGeometry x="1220" y="851" width="10" height="10" as="geometry" />
        </mxCell>
        <mxCell id="qGYoRoHl6GuYVIY8IuJY-21" value="" style="shape=flexArrow;endArrow=classic;html=1;rounded=0;width=0.3225806451612903;endSize=1.064804469273743;endWidth=2.980717246350694;strokeColor=#F19C99;entryX=1;entryY=1;entryDx=0;entryDy=0;" edge="1" parent="1" source="qGYoRoHl6GuYVIY8IuJY-19" target="qGYoRoHl6GuYVIY8IuJY-20">
          <mxGeometry width="50" height="50" relative="1" as="geometry">
            <mxPoint x="1010" y="988.77" as="sourcePoint" />
            <mxPoint x="1270" y="731" as="targetPoint" />
          </mxGeometry>
        </mxCell>
        <mxCell id="qGYoRoHl6GuYVIY8IuJY-22" value="&lt;font style=&quot;font-size: 14px;&quot;&gt;$$H_{ammonia}$$&lt;/font&gt;" style="ellipse;whiteSpace=wrap;html=1;aspect=fixed;fillColor=#CCCCCC;strokeColor=#666666;strokeWidth=1;fontColor=#333333;" vertex="1" parent="1">
          <mxGeometry x="1070" y="490" width="80" height="80" as="geometry" />
        </mxCell>
        <mxCell id="qGYoRoHl6GuYVIY8IuJY-23" value="&lt;font style=&quot;font-size: 14px;&quot;&gt;$$H_{water}$$&lt;/font&gt;" style="ellipse;whiteSpace=wrap;html=1;aspect=fixed;fillColor=#CCCCCC;strokeColor=#666666;strokeWidth=1;fontColor=#333333;" vertex="1" parent="1">
          <mxGeometry x="1320" y="516" width="80" height="80" as="geometry" />
        </mxCell>
        <mxCell id="qGYoRoHl6GuYVIY8IuJY-24" value="&lt;font style=&quot;font-size: 14px;&quot;&gt;$$F_{transfer_{heat}}$$&lt;/font&gt;" style="ellipse;whiteSpace=wrap;html=1;aspect=fixed;fillColor=#A9C4EB;" vertex="1" parent="1">
          <mxGeometry x="1420" y="560" width="80" height="80" as="geometry" />
        </mxCell>
        <mxCell id="qGYoRoHl6GuYVIY8IuJY-26" value="" style="shape=flexArrow;endArrow=classic;html=1;rounded=0;width=0.3225806451612903;endSize=1.064804469273743;endWidth=2.980717246350694;strokeColor=#F19C99;" edge="1" parent="1">
          <mxGeometry width="50" height="50" relative="1" as="geometry">
            <mxPoint x="1077" y="423" as="sourcePoint" />
            <mxPoint x="1251.19722153671" y="349.77243668841174" as="targetPoint" />
          </mxGeometry>
        </mxCell>
        <mxCell id="qGYoRoHl6GuYVIY8IuJY-27" value="" style="ellipse;whiteSpace=wrap;html=1;aspect=fixed;fillColor=#000000;strokeColor=#000000;" vertex="1" parent="1">
          <mxGeometry x="1230" y="441" width="10" height="10" as="geometry" />
        </mxCell>
        <mxCell id="qGYoRoHl6GuYVIY8IuJY-29" value="" style="shape=flexArrow;endArrow=classic;html=1;rounded=0;fillColor=#000000;exitX=0;exitY=1;exitDx=0;exitDy=0;width=0.3225806451612903;endSize=1.064804469273743;endWidth=2.980717246350694;entryX=0.959;entryY=0.27;entryDx=0;entryDy=0;entryPerimeter=0;" edge="1" parent="1" source="qGYoRoHl6GuYVIY8IuJY-27" target="qGYoRoHl6GuYVIY8IuJY-22">
          <mxGeometry width="50" height="50" relative="1" as="geometry">
            <mxPoint x="1262" y="464" as="sourcePoint" />
            <mxPoint x="1229" y="497" as="targetPoint" />
            <Array as="points" />
          </mxGeometry>
        </mxCell>
        <mxCell id="qGYoRoHl6GuYVIY8IuJY-30" value="" style="shape=flexArrow;endArrow=classic;html=1;rounded=0;fillColor=#000000;exitX=1;exitY=0.5;exitDx=0;exitDy=0;width=0.3225806451612903;endSize=1.064804469273743;endWidth=2.980717246350694;entryX=0.05;entryY=0.292;entryDx=0;entryDy=0;entryPerimeter=0;" edge="1" parent="1" source="qGYoRoHl6GuYVIY8IuJY-27" target="qGYoRoHl6GuYVIY8IuJY-23">
          <mxGeometry width="50" height="50" relative="1" as="geometry">
            <mxPoint x="1221" y="505" as="sourcePoint" />
            <mxPoint x="1133" y="554" as="targetPoint" />
            <Array as="points" />
          </mxGeometry>
        </mxCell>
        <mxCell id="qGYoRoHl6GuYVIY8IuJY-31" value="&lt;font style=&quot;font-size: 14px;&quot;&gt;$$F_{transmit_{heat}}$$&lt;/font&gt;" style="ellipse;whiteSpace=wrap;html=1;aspect=fixed;fillColor=#A9C4EB;" vertex="1" parent="1">
          <mxGeometry x="1210" y="610" width="80" height="80" as="geometry" />
        </mxCell>
        <mxCell id="qGYoRoHl6GuYVIY8IuJY-34" value="" style="shape=flexArrow;endArrow=classic;html=1;rounded=0;fillColor=#000000;width=0.3225806451612903;endSize=1.064804469273743;endWidth=2.980717246350694;" edge="1" parent="1" source="qGYoRoHl6GuYVIY8IuJY-3" target="qGYoRoHl6GuYVIY8IuJY-35">
          <mxGeometry width="50" height="50" relative="1" as="geometry">
            <mxPoint x="1168" y="624" as="sourcePoint" />
            <mxPoint x="1216" y="664" as="targetPoint" />
          </mxGeometry>
        </mxCell>
        <mxCell id="qGYoRoHl6GuYVIY8IuJY-35" value="&lt;font style=&quot;font-size: 14px;&quot;&gt;$$H_{hardware}$$&lt;/font&gt;" style="ellipse;whiteSpace=wrap;html=1;aspect=fixed;fillColor=#CCCCCC;strokeColor=#666666;strokeWidth=1;fontColor=#333333;" vertex="1" parent="1">
          <mxGeometry x="1100" y="610" width="80" height="80" as="geometry" />
        </mxCell>
        <mxCell id="qGYoRoHl6GuYVIY8IuJY-36" value="" style="shape=flexArrow;endArrow=classic;html=1;rounded=0;fillColor=#000000;width=0.3225806451612903;endSize=1.064804469273743;endWidth=2.980717246350694;" edge="1" parent="1" source="qGYoRoHl6GuYVIY8IuJY-35" target="qGYoRoHl6GuYVIY8IuJY-31">
          <mxGeometry width="50" height="50" relative="1" as="geometry">
            <mxPoint x="1102" y="728" as="sourcePoint" />
            <mxPoint x="1088" y="702" as="targetPoint" />
          </mxGeometry>
        </mxCell>
        <mxCell id="qGYoRoHl6GuYVIY8IuJY-47" value="&lt;font style=&quot;font-size: 14px;&quot;&gt;$$H_{fluid}$$&lt;/font&gt;" style="ellipse;whiteSpace=wrap;html=1;aspect=fixed;fillColor=#CCCCCC;" vertex="1" parent="1">
          <mxGeometry x="850" y="356" width="80" height="80" as="geometry" />
        </mxCell>
        <mxCell id="qGYoRoHl6GuYVIY8IuJY-48" value="" style="shape=flexArrow;endArrow=classic;html=1;rounded=0;fillColor=#000000;width=0.3225806451612903;endSize=1.064804469273743;endWidth=2.980717246350694;" edge="1" parent="1" source="qGYoRoHl6GuYVIY8IuJY-47" target="qGYoRoHl6GuYVIY8IuJY-2">
          <mxGeometry width="50" height="50" relative="1" as="geometry">
            <mxPoint x="1103" y="559" as="sourcePoint" />
            <mxPoint x="1059" y="539" as="targetPoint" />
            <Array as="points" />
          </mxGeometry>
        </mxCell>
      </root>
    </mxGraphModel>
  </diagram>
</mxfile>
